<?xml version="1.0" standalone="no"?>
<!DOCTYPE svg PUBLIC "-//W3C//DTD SVG 20010904//EN"
 "http://www.w3.org/TR/2001/REC-SVG-20010904/DTD/svg10.dtd">
<svg version="1.0" xmlns="http://www.w3.org/2000/svg"
 width="260.000000pt" height="260.000000pt" viewBox="0 0 260.000000 260.000000"
 preserveAspectRatio="xMidYMid meet">
<metadata>
Created by potrace 1.11, written by Peter Selinger 2001-2013
</metadata>
<g transform="translate(0.000000,260.000000) scale(0.100000,-0.100000)"
fill="#000000" stroke="none">
<path d="M1318 2115 c-1 -1 -25 -5 -53 -9 -27 -3 -59 -8 -71 -10 -49 -10 -133
-19 -193 -20 -41 -2 -66 -7 -69 -15 -7 -22 7 -57 34 -84 l26 -27 -60 -102
c-123 -211 -224 -402 -300 -568 -67 -147 -80 -266 -34 -303 18 -15 26 -16 37
-7 8 6 19 9 25 5 5 -3 10 -2 10 4 0 5 -4 11 -9 13 -12 4 55 144 68 141 5 -1 7
7 4 17 -3 12 0 20 7 20 6 0 10 6 7 13 -2 6 3 18 12 25 9 8 10 10 3 7 -11 -6
-11 -3 0 14 7 12 17 21 21 21 5 0 6 7 3 16 -4 11 -2 15 7 11 8 -3 14 1 14 9 0
7 -5 10 -11 7 -5 -4 0 7 12 24 12 17 19 33 16 36 -3 3 4 11 16 17 16 9 25 9
36 -1 8 -6 17 -9 21 -5 3 3 0 6 -7 6 -16 0 -5 13 14 16 7 1 23 5 35 9 13 4 29
1 38 -7 9 -7 14 -8 10 -2 -4 7 0 14 7 17 9 4 17 -1 19 -11 4 -16 5 -15 6 1 0
9 8 17 17 17 9 0 13 -5 9 -12 -4 -7 -1 -6 7 2 18 20 49 25 59 8 7 -10 9 -10 9
0 0 7 9 11 23 8 13 -2 33 4 46 15 13 10 19 19 15 19 -5 0 -16 13 -26 29 -28
50 -60 64 -153 65 -48 1 -87 -3 -89 -9 -3 -5 -5 -3 -5 5 -1 21 44 91 53 83 4
-4 4 0 0 10 -3 10 -1 17 6 17 6 0 8 5 5 10 -3 6 -1 10 5 10 6 0 8 5 5 10 -3 6
-2 10 3 10 5 0 16 18 25 41 9 22 20 38 24 36 5 -3 10 4 10 16 1 12 7 23 13 25
5 2 10 12 10 22 0 11 9 24 21 30 11 7 18 14 15 17 -9 9 27 63 44 64 26 2 54 7
70 10 8 2 14 -2 12 -9 -1 -8 2 -11 8 -7 6 3 7 11 4 17 -5 7 0 9 14 6 12 -4 20
-2 16 3 -10 16 9 9 22 -8 13 -17 14 -17 8 0 -4 10 -1 17 7 17 8 1 33 5 56 9
23 5 41 5 38 2 -2 -4 5 -7 15 -7 10 0 16 4 14 8 -8 13 11 9 25 -4 8 -7 11 -8
8 -2 -4 7 5 11 24 12 20 0 27 -3 23 -11 -5 -9 -4 -9 4 -2 7 6 14 26 16 43 2
18 1 31 -1 28 -3 -3 -16 8 -29 24 -13 15 -37 32 -52 38 -25 8 -146 14 -154 7z"/>
<path d="M1366 1958 c3 -5 10 -6 15 -3 13 9 11 12 -6 12 -8 0 -12 -4 -9 -9z"/>
<path d="M1939 1806 c-2 -2 -31 -6 -64 -10 -33 -3 -70 -8 -82 -10 -61 -12
-124 -19 -187 -21 -45 -1 -71 -6 -74 -14 -7 -22 7 -57 34 -84 l26 -26 -80
-138 c-131 -227 -202 -363 -280 -534 -64 -139 -77 -229 -42 -286 23 -38 35
-41 52 -13 7 11 16 20 21 20 4 0 5 -4 2 -10 -3 -6 1 -7 9 -4 14 5 14 8 0 22
-15 14 -14 17 8 35 12 10 17 16 11 12 -19 -9 -16 6 5 22 9 8 11 12 4 8 -10 -5
-10 -1 0 20 7 16 17 24 26 20 11 -4 12 -2 4 7 -7 10 0 32 27 85 21 40 41 69
45 65 5 -4 6 0 5 8 -2 8 3 30 11 48 17 38 68 54 98 31 15 -12 16 -12 4 2 -10
14 -9 17 7 22 13 3 21 -1 24 -12 4 -14 5 -14 6 2 1 20 17 23 24 5 3 -8 6 -6 6
5 1 9 6 17 12 17 6 0 8 -8 5 -17 -5 -15 -4 -15 9 1 8 11 15 16 15 10 0 -5 5
-2 10 6 7 11 10 11 10 2 0 -8 5 -10 13 -5 22 14 49 14 41 1 -6 -10 -5 -10 7
-1 8 7 32 13 53 15 20 1 40 6 43 12 3 5 1 6 -5 2 -16 -10 -15 7 1 23 8 10 9
12 0 7 -7 -4 -17 3 -24 16 -25 48 -59 61 -156 61 -49 0 -63 3 -66 16 -3 9 -5
6 -6 -8 -1 -17 -4 -22 -11 -15 -13 13 -2 44 15 44 9 0 12 8 10 21 -3 14 0 19
9 16 10 -4 12 0 9 14 -3 11 0 19 6 19 7 0 9 -5 5 -12 -4 -7 -3 -8 5 -4 9 6 9
11 -1 24 -11 13 -11 14 0 8 9 -5 13 -3 11 5 -3 19 11 49 23 49 5 0 7 -4 3 -9
-3 -5 -1 -12 4 -15 10 -7 9 13 -2 31 -4 6 1 19 10 29 10 10 18 20 19 23 3 21
19 41 29 38 6 -3 12 1 12 9 0 7 -5 11 -10 7 -5 -3 -4 4 2 16 7 11 14 21 17 21
3 0 2 -5 -2 -12 -4 -7 -3 -8 5 -4 7 4 10 13 8 19 -9 24 26 65 60 72 18 3 38 3
43 0 6 -3 10 0 10 7 0 10 2 10 9 -1 6 -9 10 -10 12 -2 2 6 21 13 42 15 21 2
40 6 44 10 3 3 13 0 21 -7 13 -10 14 -9 8 2 -7 10 -3 12 13 6 14 -4 21 -2 22
7 0 7 4 4 9 -7 7 -16 9 -17 9 -3 1 17 41 22 41 6 0 -4 5 -8 11 -8 5 0 7 5 3
11 -4 7 1 9 12 7 11 -2 18 -10 16 -17 -1 -7 2 -10 8 -6 6 3 8 10 5 15 -3 5 3
11 14 15 23 7 21 38 -4 65 -8 9 -12 20 -8 24 5 4 4 6 -2 5 -5 -2 -27 5 -49 14
-34 15 -125 24 -137 13z"/>
<path d="M1036 1713 c-6 -14 -5 -15 5 -6 7 7 10 15 7 18 -3 3 -9 -2 -12 -12z"/>
<path d="M2150 1670 c0 -5 5 -10 11 -10 5 0 7 5 4 10 -3 6 -8 10 -11 10 -2 0
-4 -4 -4 -10z"/>
<path d="M975 1600 c-3 -5 -1 -10 4 -10 6 0 11 5 11 10 0 6 -2 10 -4 10 -3 0
-8 -4 -11 -10z"/>
<path d="M1746 1584 c-5 -14 -4 -15 9 -4 17 14 19 20 6 20 -5 0 -12 -7 -15
-16z"/>
<path d="M950 1566 c0 -2 7 -7 16 -10 8 -3 12 -2 9 4 -6 10 -25 14 -25 6z"/>
<path d="M1680 1479 c0 -5 5 -7 10 -4 6 3 10 8 10 11 0 2 -4 4 -10 4 -5 0 -10
-5 -10 -11z"/>
<path d="M1675 1449 c-4 -6 -5 -12 -2 -15 2 -3 7 2 10 11 7 17 1 20 -8 4z"/>
<path d="M1075 1400 c-3 -5 -1 -10 4 -10 6 0 11 5 11 10 0 6 -2 10 -4 10 -3 0
-8 -4 -11 -10z"/>
<path d="M935 1380 c-3 -5 -1 -10 4 -10 6 0 11 5 11 10 0 6 -2 10 -4 10 -3 0
-8 -4 -11 -10z"/>
<path d="M829 1323 c-13 -16 -12 -17 4 -4 9 7 17 15 17 17 0 8 -8 3 -21 -13z"/>
<path d="M1431 1004 c0 -11 3 -14 6 -6 3 7 2 16 -1 19 -3 4 -6 -2 -5 -13z"/>
<path d="M1395 939 c-4 -6 -5 -12 -2 -15 2 -3 7 2 10 11 7 17 1 20 -8 4z"/>
<path d="M1374 912 c3 -5 0 -13 -6 -15 -9 -4 -10 -6 -1 -6 17 -1 25 16 12 25
-7 4 -9 3 -5 -4z"/>
<path d="M1340 839 c0 -5 5 -7 10 -4 6 3 10 8 10 11 0 2 -4 4 -10 4 -5 0 -10
-5 -10 -11z"/>
<path d="M1315 760 c-3 -5 -1 -10 4 -10 6 0 11 5 11 10 0 6 -2 10 -4 10 -3 0
-8 -4 -11 -10z"/>
<path d="M1295 720 c-3 -5 -1 -10 4 -10 6 0 11 5 11 10 0 6 -2 10 -4 10 -3 0
-8 -4 -11 -10z"/>
<path d="M1250 651 c0 -6 4 -13 10 -16 6 -3 7 1 4 9 -7 18 -14 21 -14 7z"/>
</g>
</svg>
