<?xml version="1.0" standalone="no"?>
<!DOCTYPE svg PUBLIC "-//W3C//DTD SVG 20010904//EN"
 "http://www.w3.org/TR/2001/REC-SVG-20010904/DTD/svg10.dtd">
<svg version="1.0" xmlns="http://www.w3.org/2000/svg"
 width="260.000000pt" height="260.000000pt" viewBox="0 0 260.000000 260.000000"
 preserveAspectRatio="xMidYMid meet">
<metadata>
Created by potrace 1.11, written by Peter Selinger 2001-2013
</metadata>
<g transform="translate(0.000000,260.000000) scale(0.100000,-0.100000)"
fill="#000000" stroke="none">
<path d="M1260 2175 c-47 -7 -105 -16 -130 -20 -79 -13 -103 -15 -210 -21 -58
-3 -110 -7 -117 -9 -24 -8 13 -95 56 -132 23 -20 24 -25 13 -44 -78 -124 -258
-449 -352 -634 -142 -280 -180 -381 -187 -490 -5 -72 -3 -83 19 -115 27 -40
57 -45 74 -13 6 13 14 20 19 15 4 -4 5 3 2 15 -6 25 2 29 21 13 9 -7 9 -7 2 2
-12 15 -13 41 -1 34 5 -4 7 4 3 16 -5 19 -3 21 9 11 12 -10 15 -8 15 7 0 10
-4 16 -8 14 -5 -3 -3 6 3 20 7 14 16 23 22 19 6 -3 7 -1 3 5 -10 17 12 54 27
45 8 -5 8 -2 -1 9 -10 13 -10 19 3 32 9 9 13 16 9 16 -3 0 -1 7 6 15 7 8 17
12 24 8 8 -4 7 -2 -1 7 -12 13 -6 43 7 35 4 -3 11 2 14 11 3 8 2 12 -4 9 -14
-9 31 67 50 83 9 9 10 11 1 6 -7 -4 -12 -3 -9 2 28 61 30 63 102 79 39 9 87
19 106 21 76 10 86 12 105 19 16 5 17 5 5 -4 -8 -6 -10 -11 -4 -11 5 0 14 4
20 9 15 14 105 21 97 7 -4 -6 1 -5 10 3 9 7 27 11 40 9 21 -4 24 -1 23 24 -1
15 -5 28 -10 28 -4 0 -6 9 -3 20 3 11 1 18 -3 15 -5 -3 -17 6 -27 19 -29 36
-94 54 -182 50 -42 -1 -88 -5 -102 -7 -22 -4 -26 -2 -22 14 3 10 10 16 15 13
5 -3 8 0 7 7 -3 18 22 69 33 69 5 0 6 5 3 10 -3 6 -2 10 3 10 6 0 13 11 16 25
4 14 11 25 17 25 6 0 7 4 4 10 -3 5 7 22 22 37 15 14 22 23 16 19 -7 -4 -13
-2 -13 3 0 6 3 11 8 11 4 0 23 31 42 70 19 38 39 69 43 70 5 0 5 -6 1 -12 -4
-7 -3 -10 1 -5 5 4 10 17 12 29 5 30 32 70 43 63 5 -3 11 -1 14 4 4 5 1 13 -5
17 -8 5 -9 3 -4 -6 5 -9 4 -11 -4 -6 -15 10 -3 29 14 22 9 -3 11 2 7 16 -4 18
-3 19 18 8 12 -7 20 -8 16 -2 -3 5 1 13 10 16 10 4 13 2 8 -7 -5 -9 -4 -9 7 1
7 6 17 12 22 12 4 0 5 -6 2 -12 -4 -7 1 -4 9 6 9 11 16 17 16 15 0 -3 28 0 62
7 63 13 83 11 72 -8 -4 -7 -2 -8 5 -4 6 4 9 12 6 17 -4 5 1 10 9 10 9 1 22 2
29 3 6 1 18 -3 26 -8 11 -8 13 -8 7 2 -4 6 -4 13 1 13 90 13 173 16 173 6 0
-4 6 -2 14 5 8 7 12 16 10 20 -2 3 2 8 8 11 10 3 8 9 -5 24 -9 11 -15 23 -12
26 3 4 3 5 0 3 -3 -1 -20 11 -39 28 -59 57 -135 67 -306 41z"/>
<path d="M1246 1963 c-6 -14 -5 -15 5 -6 7 7 10 15 7 18 -3 3 -9 -2 -12 -12z"/>
<path d="M1006 1778 c3 -5 10 -6 15 -3 13 9 11 12 -6 12 -8 0 -12 -4 -9 -9z"/>
<path d="M2048 1784 c-2 -1 -28 -5 -58 -9 -30 -3 -62 -8 -70 -10 -8 -2 -37 -7
-65 -10 -27 -4 -63 -9 -80 -11 -16 -2 -77 -7 -135 -10 -58 -3 -110 -7 -117 -9
-24 -8 13 -95 55 -132 l25 -21 -25 -44 c-13 -23 -69 -119 -123 -213 -128 -222
-323 -606 -364 -720 -58 -160 -51 -279 19 -324 14 -10 21 -11 16 -3 -4 8 -1
12 9 12 9 0 13 4 10 10 -3 5 -1 10 5 10 6 0 9 4 5 9 -3 5 2 16 10 25 9 8 16
18 15 21 -1 20 1 25 9 21 5 -4 7 3 4 14 -3 12 0 20 6 20 7 0 9 5 5 12 -5 8 -2
9 11 4 15 -5 16 -4 6 8 -10 12 -9 18 6 33 10 10 17 26 15 36 -2 9 2 17 8 17 6
0 8 -5 4 -12 -5 -7 -3 -8 5 -3 9 5 10 10 2 18 -8 8 -6 16 6 29 9 10 12 18 8
18 -5 0 2 12 16 27 13 14 18 23 12 19 -9 -5 -11 -2 -7 9 5 13 9 13 22 3 13
-11 14 -10 4 9 -11 20 0 45 11 26 2 -5 2 -2 0 5 -5 21 26 73 40 66 9 -5 9 -4
1 5 -21 23 11 67 56 79 22 5 38 7 35 3 -2 -4 2 -8 10 -8 8 0 12 4 10 8 -10 16
39 17 51 1 12 -15 12 -14 8 8 -5 20 -3 22 5 10 9 -12 11 -13 11 -1 0 8 3 12 6
9 3 -4 19 -2 35 2 22 7 31 5 40 -8 9 -15 10 -15 5 2 -5 15 -2 17 14 13 11 -3
18 -1 14 4 -9 16 7 10 24 -9 10 -10 13 -12 8 -5 -5 8 -7 15 -5 18 9 8 115 9
128 1 10 -6 12 -5 7 2 -4 7 -2 12 4 12 6 0 21 9 33 21 19 18 19 19 3 13 -13
-5 -17 -4 -13 3 4 6 2 13 -4 15 -6 2 -11 17 -11 32 0 17 -4 23 -8 16 -5 -9
-11 -7 -21 6 -27 37 -68 49 -158 48 -47 -1 -101 -4 -118 -7 -33 -5 -46 9 -19
19 8 3 12 12 9 20 -3 8 0 14 6 14 6 0 11 -5 11 -12 0 -6 3 -8 6 -5 4 4 1 14
-7 24 -12 15 -12 16 3 11 11 -5 15 -2 13 10 -4 24 14 54 27 46 7 -4 8 -2 4 5
-4 6 -2 19 5 27 7 9 14 23 15 32 2 8 8 18 14 22 7 4 12 11 12 16 -1 19 42 83
51 77 6 -3 7 -1 4 5 -8 11 23 72 36 72 5 0 5 5 2 10 -6 9 8 15 29 11 5 -1 4 4
-2 12 -9 10 -8 19 4 35 8 12 19 20 24 17 5 -3 11 -1 14 4 4 5 1 13 -5 17 -8 5
-9 3 -4 -6 5 -9 4 -11 -4 -6 -15 10 -3 29 14 22 8 -3 11 2 8 13 -5 19 20 23
45 8 8 -6 10 -3 5 10 -6 16 -5 17 12 3 10 -8 16 -10 12 -4 -4 8 8 14 36 19 23
4 48 9 55 11 6 1 10 -2 7 -6 -3 -5 8 -2 23 6 16 8 54 15 85 17 32 1 57 5 57 9
0 11 40 5 40 -7 0 -5 4 -4 9 4 6 9 22 12 49 8 25 -2 43 0 47 7 3 8 7 7 11 -1
8 -18 24 -16 24 2 0 8 4 15 9 15 6 0 0 19 -12 41 -40 76 -112 112 -216 108
-34 -1 -62 -3 -63 -5z"/>
<path d="M974 1735 c-3 -8 -4 -20 -2 -27 3 -7 7 -1 10 15 6 29 1 36 -8 12z"/>
<path d="M953 1673 c0 -9 4 -10 14 -2 7 6 13 12 13 14 0 1 -6 2 -13 2 -8 0
-14 -6 -14 -14z"/>
<path d="M1750 1399 c0 -5 5 -7 10 -4 6 3 10 8 10 11 0 2 -4 4 -10 4 -5 0 -10
-5 -10 -11z"/>
<path d="M1650 1261 c0 -6 4 -13 10 -16 6 -3 7 1 4 9 -7 18 -14 21 -14 7z"/>
<path d="M815 1231 c-3 -5 -2 -12 3 -15 5 -3 9 1 9 9 0 17 -3 19 -12 6z"/>
<path d="M1630 1219 c0 -5 5 -7 10 -4 6 3 10 8 10 11 0 2 -4 4 -10 4 -5 0 -10
-5 -10 -11z"/>
<path d="M756 1207 c3 -10 9 -15 12 -12 3 3 0 11 -7 18 -10 9 -11 8 -5 -6z"/>
<path d="M713 1195 c0 -8 4 -12 9 -9 4 3 8 9 8 15 0 5 -4 9 -8 9 -5 0 -9 -7
-9 -15z"/>
<path d="M670 1186 c0 -2 7 -7 16 -10 8 -3 12 -2 9 4 -6 10 -25 14 -25 6z"/>
<path d="M667 1159 c7 -7 15 -10 18 -7 3 3 -2 9 -12 12 -14 6 -15 5 -6 -5z"/>
<path d="M1610 1146 c0 -2 7 -7 16 -10 8 -3 12 -2 9 4 -6 10 -25 14 -25 6z"/>
<path d="M1575 1131 c-3 -5 -2 -12 3 -15 5 -3 9 1 9 9 0 17 -3 19 -12 6z"/>
<path d="M627 1059 c7 -7 15 -10 18 -7 3 3 -2 9 -12 12 -14 6 -15 5 -6 -5z"/>
<path d="M550 941 c0 -6 4 -12 8 -15 5 -3 9 1 9 9 0 8 -4 15 -9 15 -4 0 -8 -4
-8 -9z"/>
<path d="M1398 783 c7 -3 16 -2 19 1 4 3 -2 6 -13 5 -11 0 -14 -3 -6 -6z"/>
<path d="M1389 757 c6 -8 7 -18 3 -22 -4 -5 -2 -5 5 -1 14 8 6 36 -9 36 -7 0
-6 -5 1 -13z"/>
<path d="M1290 580 c-9 -6 -10 -10 -3 -10 6 0 15 5 18 10 8 12 4 12 -15 0z"/>
<path d="M1275 540 c-3 -6 1 -7 9 -4 18 7 21 14 7 14 -6 0 -13 -4 -16 -10z"/>
<path d="M1216 393 c-6 -14 -5 -15 5 -6 7 7 10 15 7 18 -3 3 -9 -2 -12 -12z"/>
<path d="M1200 360 c-9 -6 -10 -10 -3 -10 6 0 15 5 18 10 8 12 4 12 -15 0z"/>
<path d="M1173 315 c0 -8 4 -12 9 -9 4 3 8 9 8 15 0 5 -4 9 -8 9 -5 0 -9 -7
-9 -15z"/>
<path d="M1156 273 c-6 -14 -5 -15 5 -6 7 7 10 15 7 18 -3 3 -9 -2 -12 -12z"/>
</g>
</svg>
